<svg xmlns="http://www.w3.org/2000/svg" version="1.1" xmlns:xlink="http://www.w3.org/1999/xlink" xmlns:svgjs="http://svgjs.com/svgjs" width="1440" height="250" preserveAspectRatio="none" viewBox="0 0 1440 250"><g mask="url(&quot;#SvgjsMask2475&quot;)" fill="none"><rect width="1440" height="250" x="0" y="0" fill="url(#SvgjsLinearGradient2476)"></rect><path d="M10 250L260 0L608 0L358 250z" fill="url(#SvgjsLinearGradient2477)"></path><path d="M269.6 250L519.6 0L842.1 0L592.1 250z" fill="url(#SvgjsLinearGradient2477)"></path><path d="M478.20000000000005 250L728.2 0L1047.7 0L797.7 250z" fill="url(#SvgjsLinearGradient2477)"></path><path d="M713.8000000000001 250L963.8000000000001 0L1032.8000000000002 0L782.8000000000001 250z" fill="url(#SvgjsLinearGradient2477)"></path><path d="M1432 250L1182 0L1011 0L1261 250z" fill="url(#SvgjsLinearGradient2478)"></path><path d="M1166.4 250L916.4000000000001 0L562.4000000000001 0L812.4000000000001 250z" fill="url(#SvgjsLinearGradient2478)"></path><path d="M928.8 250L678.8 0L630.8 0L880.8 250z" fill="url(#SvgjsLinearGradient2478)"></path><path d="M726.1999999999999 250L476.19999999999993 0L146.19999999999993 0L396.19999999999993 250z" fill="url(#SvgjsLinearGradient2478)"></path><path d="M1285.5993109926287 250L1440 95.59931099262869L1440 250z" fill="url(#SvgjsLinearGradient2477)"></path><path d="M0 250L154.4006890073713 250L 0 95.59931099262869z" fill="url(#SvgjsLinearGradient2478)"></path></g><defs><mask id="SvgjsMask2475"><rect width="1440" height="250" fill="#ffffff"></rect></mask><linearGradient x1="20.66%" y1="-119%" x2="79.34%" y2="219%" gradientUnits="userSpaceOnUse" id="SvgjsLinearGradient2476"><stop stop-color="#0e2a47" offset="0"></stop><stop stop-color="rgba(134, 166, 208, 1)" offset="1"></stop></linearGradient><linearGradient x1="0%" y1="100%" x2="100%" y2="0%" id="SvgjsLinearGradient2477"><stop stop-color="rgba(15, 70, 185, 0.2)" offset="0"></stop><stop stop-opacity="0" stop-color="rgba(15, 70, 185, 0.2)" offset="0.66"></stop></linearGradient><linearGradient x1="100%" y1="100%" x2="0%" y2="0%" id="SvgjsLinearGradient2478"><stop stop-color="rgba(15, 70, 185, 0.2)" offset="0"></stop><stop stop-opacity="0" stop-color="rgba(15, 70, 185, 0.2)" offset="0.66"></stop></linearGradient></defs></svg>